# xmcd CD database file
#
# Track frame offsets:
#	150
#	17619
#	43102
#	59987
#	72872
#
# Disc length: 1179 seconds
#
# Revision: 0
# Processed by: cddbd v1.5.1PL0 Copyright (c) Steve Scherf et al.
# Submitted via: CDex 1.50
#
DISCID=45049905
DTITLE=Big Brazos - Une Drôle d'Histoire
DYEAR=1900
DGENRE=Blues
TTITLE0=Railroad worksong
TTITLE1=Black Cat Bone
TTITLE2=You Better Listen
TTITLE3=Ta Tête est dans la Mienne
TTITLE4=Statesboro Blues
EXTD=
EXTT0=
EXTT1=
EXTT2=
EXTT3=
EXTT4=
PLAYORDER=
